# xmcd CD database file
#
# Track frame offsets:
#	151
#	23704
#	40470
#	58740
#	90341
#	112035
#	133961
#	171374
#	191032
#	217067
#	243278
#	266561
#
# Disc length: 4590 seconds
#
# Revision: 0
# Processed by: cddbd v1.5.2PL0 Copyright (c) Steve Scherf et al.
# Submitted via: CDex 1.70beta2
#
DISCID=b311ec0c
DTITLE=Diaspora suite - Steven Bernstein
DYEAR=2008
DGENRE=Jazz
TTITLE0=Reuben
TTITLE1=Simon
TTITLE2=Levi
TTITLE3=Judah
TTITLE4=Dan
TTITLE5=Naphtali
TTITLE6=Gad
TTITLE7=Asher
TTITLE8=Issachar
TTITLE9=zebulon
TTITLE10=Joseph
TTITLE11=Benjamin
EXTD=YEAR: 2008
EXTT0=
EXTT1=
EXTT2=
EXTT3=
EXTT4=
EXTT5=
EXTT6=
EXTT7=
EXTT8=
EXTT9=
EXTT10=
EXTT11=
PLAYORDER=
